<svg xmlns="http://www.w3.org/2000/svg" xmlns:xlink="http://www.w3.org/1999/xlink" viewBox="0 0 288 288"><defs><style>.cls-1{fill:url(#linear-gradient);}</style><linearGradient id="linear-gradient" x1="93.2" y1="93.2" x2="199.13" y2="199.13" gradientUnits="userSpaceOnUse"><stop offset="0" stop-color="#00b3a5"/><stop offset="1" stop-color="#ff68f0"/></linearGradient></defs><g id="Layer_2" data-name="Layer 2"><g id="Layer_1-2" data-name="Layer 1"><path class="cls-1" d="M242.33,139.58l-.05,0-17.11,34.22L191,190.92l0,0-17.12,34.22-34.18,17.09,0,0-17.12,34.22L99.51,288h.69l22.48-11.24,0,0,17.12-34.23L174,225.43l0,0,17.12-34.22,34.17-17.09.05,0,17.11-34.22,34.18-17.09.05,0L288,100.2v-.69l-11.49,23Zm-4.28-4.27,0,0-17.12,34.23-34.18,17.09,0,0-17.12,34.22L135.37,238l0,0-17.11,34.22L86.68,288h.69l31-15.51,0,0,17.11-34.22,34.18-17.09,0,0L186.9,186.9l34.18-17.09,0,0,17.12-34.23,34.18-17.09,0,0L288,87.37v-.69l-15.77,31.54Zm17.07-85.54L238,84l-34.18,17.09-.05,0-17.11,34.23-34.18,17.09-.05,0-17.11,34.23-34.18,17.09-.05,0L84,238,49.81,255.1l-.05,0L33.32,288h.35L50,255.35l34.18-17.09,0,0L101.33,204l34.18-17.09.05,0,17.11-34.23,34.18-17.09.05,0L204,101.33l34.18-17.09.05,0L255.35,50,288,33.67v-.35L255.16,49.74ZM259.4,54,242.28,88.27,208.1,105.36l0,0L191,139.61,156.77,156.7l-.05,0L139.61,191,105.43,208l-.05,0L88.27,242.29,54.09,259.37l-.05,0L39.74,288h.35l14.18-28.37,34.18-17.09,0,0,17.11-34.22,34.18-17.09.05,0L157,157l34.18-17.09.05,0,17.11-34.23,34.18-17.09,0,0,17.12-34.23L288,40.09v-.35L259.44,54Zm21.39,124.07-17.11,34.23L229.5,229.43l-.05,0-17.11,34.23-34.18,17.09,0,0-3.6,7.21h.34l3.49-7,34.18-17.09,0,0,17.11-34.23,34.18-17.09,0,0L281,178.34l7-3.49v-.34l-7.17,3.58Zm4.28,4.28L268,216.62l-34.18,17.09,0,0L216.61,268,182.44,285l-.05,0L180.92,288h.35l1.35-2.7,34.18-17.09,0,0L234,234l34.18-17.09,0,0,17.12-34.23,2.7-1.35v-.35l-2.89,1.45Zm-34.18-34.25,0,0-17.11,34.23-34.18,17.09-.05,0-17.11,34.23-34.18,17.09-.05,0-17.11,34.23L125.18,288h.69l5.36-2.68.05,0,17.11-34.23L182.57,234l.05,0,17.11-34.23,34.18-17.09.05,0,17.11-34.23,34.18-17.09.05,0,2.7-5.41v-.69l-2.93,5.87Zm-4.28-4.28-.05,0-17.11,34.22L195.27,195.2l-.05,0-17.11,34.23-34.18,17.09,0,0-17.12,34.23L112.35,288H113L127,281l0,0,17.11-34.23,34.18-17.09.05,0,17.11-34.23,34.18-17.09.05,0,17.11-34.22L281,127l0,0,7-14v-.69l-7.21,14.42Zm29.9-72.7L259.4,105.38l-34.18,17.09-.05,0-17.11,34.22-34.18,17.09,0,0-17.11,34.23-34.18,17.09-.05,0L105.38,259.4,71.2,276.49l0,0L65.41,288h.35l5.63-11.26,34.17-17.09,0,0,17.11-34.23,34.18-17.09,0,0,17.11-34.23L208.24,157l0,0,17.11-34.23,34.18-17.08.05,0,17.11-34.22L288,65.76v-.35l-11.44,5.72Zm8.56,8.55L268,113.94,233.77,131l0,0-17.12,34.23-34.17,17.09-.05,0-17.11,34.23L131.1,233.71l0,0L113.94,268,79.76,285l-.05,0L78.25,288h.34l1.35-2.7,34.18-17.09,0,0L131.28,234l34.18-17.09,0,0,17.11-34.23,34.18-17.09,0,0L234,131.28l34.18-17.09,0,0L285.3,79.94l2.7-1.35v-.34l-2.89,1.44Zm-4.28-4.27-17.11,34.22L229.5,126.75l-.05,0L212.34,161l-34.18,17.09,0,0L161,212.34l-34.18,17.09,0,0-17.11,34.23L75.48,280.77l0,0L71.83,288h.34l3.49-7,34.18-17.09,0,0L127,229.68l34.18-17.09,0,0,17.11-34.23,34.18-17.09,0,0L229.68,127l34.18-17.09,0,0L281,75.66l7-3.49v-.34l-7.17,3.58ZM263.68,58.32,246.56,92.55l-34.18,17.09,0,0-17.12,34.23L161,161l0,0-17.11,34.22-34.18,17.09,0,0L92.55,246.56,58.37,263.65l0,0L46.16,288h.34l12-24.09,34.18-17.09,0,0,17.11-34.22,34.18-17.09,0,0,17.12-34.22,34.18-17.09,0,0,17.12-34.23L246.75,92.8l0,0L263.9,58.55l24.1-12v-.34L263.72,58.3ZM250.89,45.46l0,0L233.73,79.71,199.55,96.8l-.05,0-17.11,34.22-34.18,17.09-.05,0-17.11,34.23L96.87,199.48l-.05,0L79.71,233.73,45.53,250.82l0,0L28.37,285.07,22.51,288h.69l5.36-2.68,0,0,17.12-34.23L79.9,234l0,0,17.11-34.23,34.18-17.09.05,0,17.11-34.23,34.18-17.09.05,0,17.11-34.22L233.91,80l.05,0,17.11-34.22,34.18-17.09.05,0,2.7-5.4v-.69l-2.93,5.86ZM268,62.6,250.84,96.83l-34.18,17.09,0,0L199.5,148.16l-34.18,17.09,0,0L148.16,199.5,114,216.59l0,0L96.82,250.84,62.64,267.93l0,0L52.58,288h.34l9.91-19.82L97,251.09l0,0,17.12-34.22,34.18-17.09,0,0,17.12-34.22,34.18-17.09,0,0,17.11-34.22L251,97.08l0,0,17.11-34.23L288,52.92v-.34l-20,10Zm8.56,111.23L259.4,208.06l-34.18,17.09-.05,0L208.06,259.4l-34.18,17.09,0,0L168.09,288h.34l5.63-11.26,34.18-17.09,0,0L225.4,225.4l34.18-17.09.05,0,17.11-34.23L288,168.43v-.34l-11.44,5.72ZM280.79,24.1,246.61,41.19l-.05,0L229.45,75.44,195.27,92.52l-.05,0-17.11,34.22-34.18,17.09,0,0-17.12,34.22L92.59,195.2l0,0L75.43,229.45,41.25,246.54l0,0L24.1,280.79,9.67,288h.69l13.92-7,0,0,17.12-34.23L75.62,229.7l0,0,17.12-34.23L127,178.36l0,0,17.11-34.22L178.29,127l.05,0,17.11-34.22,34.18-17.09.05,0,17.11-34.22L281,24.35l0,0,7-14V9.67Zm-8.56,42.78L255.12,101.1l-34.18,17.09-.05,0-17.11,34.22L169.6,169.53l0,0-17.11,34.22-34.18,17.09,0,0L101.1,255.12,66.92,272.21l0,0L59,288h.35l7.77-15.54,34.18-17.09,0,0,17.12-34.23L152.63,204l0,0,17.11-34.22L204,152.7l0,0,17.11-34.22,34.18-17.09,0,0,17.11-34.22L288,59.34V59l-15.72,7.87Zm-8.55,196.8L251.51,288h.35l12-24.09L288,251.86v-.35l-24.28,12.14ZM268,268l-10,20.05h.34l9.91-19.82,19.82-9.9v-.35l-20,10Zm-12.83-12.83L238.68,288H239l16.33-32.65L288,239v-.34L255.16,255.1Zm17.11,17.11L264.35,288h.34l7.77-15.54L288,264.69v-.34l-15.72,7.86Zm-21.34-21.41,0,0-17.11,34.23L227.86,288h.69l5.36-2.68.05,0,17.11-34.23L285.25,234l.05,0,2.7-5.41v-.69l-2.93,5.87Zm34.18,34.25L283.6,288h.34l1.36-2.7,2.7-1.36v-.34L285.11,285Zm-4.28-4.28L277.18,288h.35l3.49-7,7-3.49v-.35l-7.17,3.59Zm-8.56-111.23-17.11,34.22-34.18,17.09-.05,0-17.11,34.23L169.6,272.21l0,0L161.67,288H162l7.76-15.54L204,255.37l0,0,17.11-34.23L255.3,204l0,0,17.11-34.22L288,162v-.35l-15.72,7.86Zm4.28,107L270.77,288h.34l5.63-11.26L288,271.11v-.34l-11.44,5.72Zm-29.9-30-.05,0-17.11,34.23L215,288h.69l13.91-7,.05,0,17.11-34.23L281,229.7l0,0,7-14V215l-7.21,14.42Zm12.79-89.82L242.28,191,208.1,208l0,0L191,242.29l-34.18,17.08-.05,0L142.42,288h.34L157,259.63l34.18-17.09.05,0,17.11-34.22,34.18-17.09,0,0L259.63,157,288,142.76v-.34L259.44,156.7Zm8.55,8.56L250.84,199.5l-34.18,17.09,0,0L199.5,250.84l-34.18,17.09,0,0-10,20.05h.35l9.91-19.82,34.18-17.09,0,0,17.11-34.22L251,199.76l0,0,17.11-34.22L288,155.6v-.35l-20,10ZM263.68,161l-17.12,34.22-34.18,17.09,0,0-17.12,34.22L161,263.65l0,0L148.84,288h.34l12-24.09,34.18-17.09,0,0,17.12-34.22,34.18-17.09,0,0,17.11-34.22,24.1-12v-.34L263.72,161Zm-8.56-8.56L238,186.67l-34.18,17.09-.05,0L186.67,238,152.49,255.1l-.05,0L136,288h.35l16.32-32.65,34.18-17.09.05,0L204,204l34.18-17.09.05,0,17.11-34.23L288,136.35V136l-32.84,16.42Zm-12.79,89.82-.05,0-17.11,34.22-23,11.49h.69l22.47-11.24.05,0,17.11-34.23,34.18-17.08.05,0L288,202.88v-.69l-11.49,23ZM238.05,238l0,0-17.12,34.22L189.36,288h.69l31-15.51,0,0,17.12-34.22,34.18-17.09,0,0L288,190.05v-.69l-15.77,31.53ZM259.4,259.4,245.1,288h.34l14.19-28.37L288,245.44v-.34l-28.56,14.27ZM20.05,122.72l34.18-17.08,0,0L71.39,71.39,105.56,54.3l0,0,17.11-34.22L156.9,3l0,0L158.42,0h-.35l-1.35,2.71L122.54,19.79l-.05,0L105.38,54,71.2,71.13l0,0L54,105.38,19.86,122.47l0,0L2.7,156.72,0,158.07v.35L2.93,157Zm-8.56,42.79L28.6,131.28l34.18-17.09,0,0L79.94,79.94l34.18-17.09,0,0L131.28,28.6l34.18-17.09,0,0L171.25,0h-.34l-5.63,11.26L131.1,28.35l0,0L113.94,62.6,79.76,79.69l-.05,0L62.6,113.94,28.42,131l-.05,0L11.26,165.28,0,170.91v.34l11.44-5.72Zm29.9,30,0,0,17.11-34.22,34.18-17.09,0,0,17.11-34.23L144.07,92.8l0,0,17.12-34.23,34.18-17.09,0,0L212.57,7.21,227,0h-.69L212.38,7l0,0L195.22,41.21,161,58.3l0,0L143.89,92.55l-34.18,17.09,0,0L92.55,143.89,58.37,161l0,0L41.21,195.22,7,212.31l0,0-7,14V227l7.21-14.42Zm-4.28-4.28,0,0L54.27,157l34.18-17.09,0,0,17.11-34.23,34.18-17.09.05,0L157,54.27l34.18-17.09.05,0L208.29,2.93,214.16,0h-.69L208.1,2.68l0,0L191,36.93,156.77,54l-.05,0L139.61,88.27l-34.18,17.09-.05,0L88.27,139.61,54.09,156.7l-.05,0L36.93,191,2.75,208l0,0L0,213.47v.69l2.93-5.87ZM8.8,0H8.11L2.75,2.68l0,0L0,8.11V8.8L2.93,2.93ZM24.32,178.34l17.12-34.22L75.62,127l0,0L92.78,92.78,127,75.69l0,0,17.12-34.22,34.17-17.09.05,0L190.5,0h-.34l-12,24.1L143.93,41.19l0,0L126.77,75.44,92.59,92.52l0,0L75.43,126.77,41.25,143.86l0,0L24.1,178.11,0,190.16v.34l24.28-12.14Zm-4.27-4.28,17.11-34.22,34.18-17.09,0,0L88.5,88.5l34.18-17.09,0,0,17.12-34.23L174,20.07l0,0,10-20h-.35l-9.91,19.82L139.65,36.91l0,0L122.49,71.16,88.31,88.25l0,0L71.16,122.5,37,139.58l0,0L19.82,173.83,0,183.74v.35l20-10Zm-4.28-4.27,17.11-34.23,34.18-17.09,0,0L84.22,84.22,118.4,67.13l0,0,17.11-34.23,34.18-17.09,0,0L177.67,0h-.35l-7.77,15.54L135.37,32.63l0,0L118.22,66.88,84,84,84,84,66.88,118.22,32.7,135.31l-.05,0L15.54,169.56,0,177.32v.35l15.72-7.86Zm-4.28,98.39L28.6,234l34.18-17.09,0,0,17.11-34.23,34.18-17.09,0,0,17.11-34.23,34.18-17.09,0,0,17.11-34.23L216.8,62.85l0,0L234,28.6l34.18-17.09,0,0L273.93,0h-.35L268,11.26,233.77,28.35l0,0L216.61,62.6,182.44,79.69l-.05,0-17.11,34.23L131.1,131l0,0-17.11,34.23L79.76,182.37l-.05,0L62.6,216.62,28.42,233.71l-.05,0L11.26,268,0,273.58v.35l11.44-5.72Zm-4.28-4.27,17.11-34.23L58.5,212.59l0,0,17.11-34.23,34.18-17.09,0,0L127,127l34.18-17.09,0,0,17.11-34.23,34.18-17.09,0,0,17.11-34.22L263.86,7.24l0,0L267.51,0h-.34l-3.49,7L229.5,24.07l-.05,0L212.34,58.32,178.16,75.41l0,0L161,109.66l-34.18,17.09,0,0L109.66,161,75.48,178.09l0,0L58.32,212.34,24.14,229.43l0,0L7,263.68l-7,3.49v.34l7.17-3.58ZM20.05,225.4l34.18-17.09,0,0,17.12-34.23L105.56,157l0,0,17.11-34.23,34.18-17.08,0,0,17.11-34.22L208.24,54.3l0,0L225.4,20.05,259.58,3l.05,0L261.09,0h-.34L259.4,2.71,225.22,19.79l-.05,0L208.06,54,173.88,71.13l0,0-17.11,34.22-34.18,17.09-.05,0-17.11,34.22L71.2,173.81l0,0L54,208.06,19.86,225.15l0,0L2.7,259.4,0,260.75v.34l2.93-1.46Zm25.62-25.64,0,0,17.11-34.22L97,148.42l0,0,17.12-34.22,34.18-17.09,0,0,17.12-34.23,34.18-17.09,0,0,17.11-34.23L239.83,0h-.69L216.66,11.24l0,0L199.5,45.49,165.32,62.58l0,0L148.16,96.83,114,113.92l0,0L96.82,148.16,62.64,165.25l0,0L45.49,199.5,11.31,216.59l-.05,0L0,239.14v.69l11.49-23Zm-25.62,77,17.11-34.23,34.18-17.08,0,0L88.5,191.18l34.18-17.09,0,0,17.12-34.22L174,122.75l0,0L191.18,88.5l34.17-17.09.05,0,17.11-34.23,34.18-17.09.05,0,10-20h-.34l-9.91,19.82L242.33,36.91l-.05,0L225.17,71.16,191,88.25l0,0L173.83,122.5l-34.18,17.08,0,0-17.12,34.22L88.31,190.92l0,0L71.16,225.17,37,242.26l0,0L19.82,276.51,0,286.42v.34l20-10ZM50,204l0,0,17.12-34.22,34.18-17.09,0,0,17.12-34.22,34.18-17.09,0,0,17.11-34.22L204,50l0,0,17.11-34.23L252.66,0H252l-31,15.52-.05,0L203.78,49.77,169.6,66.86l0,0L152.44,101.1l-34.18,17.09,0,0L101.1,152.44,66.92,169.53l0,0L49.76,203.78,15.58,220.87l0,0L0,252v.69l15.77-31.54ZM28.6,182.62l17.12-34.23L79.9,131.3l0,0L97.05,97.06,131.23,80l.05,0,17.11-34.22,34.18-17.09.05,0L196.92,0h-.34L182.39,28.37,148.21,45.46l-.05,0L131.05,79.71,96.87,96.8l-.05,0L79.71,131.05,45.53,148.14l0,0L28.37,182.39,0,196.58v.34l28.56-14.28ZM15.77,272.46l17.11-34.22,34.18-17.09,0,0L84.22,186.9l34.18-17.09,0,0,17.11-34.23,34.18-17.09,0,0L186.9,84.22l34.18-17.09,0,0,17.12-34.23,34.18-17.09,0,0L280.35,0H280l-7.77,15.54L238.05,32.63l0,0L220.89,66.88,186.71,84l0,0-17.12,34.23-34.18,17.09,0,0-17.11,34.23L84,186.65l-.05,0L66.88,220.89,32.7,238l-.05,0L15.54,272.23,0,280v.35l15.72-7.86ZM7.21,161.23,24.32,127,58.5,109.91l0,0L75.66,75.66l34.18-17.09,0,0L127,24.33,161.18,7.24l0,0L164.83,0h-.34L161,7,126.82,24.07l0,0L109.66,58.32,75.48,75.41l0,0L58.32,109.66,24.14,126.75l0,0L7,161l-7,3.49v.34l7.17-3.58Zm8.56-94.12L32.88,32.88,67.06,15.79l0,0L75,0h-.34L66.88,15.54,32.7,32.63l-.05,0L15.54,66.88,0,74.65V75l15.72-7.86Zm8.55,8.55L41.44,41.44,75.62,24.35l0,0L87.83,0h-.35l-12,24.1L41.25,41.19l0,0L24.1,75.44,0,87.48v.35L24.28,75.69Zm4.28,4.28L45.72,45.72,79.9,28.63l0,0L94.24,0H93.9L79.71,28.37,45.53,45.46l0,0L28.37,79.71,0,93.9v.34L28.56,80Zm-8.55-8.55L37.16,37.16,71.34,20.07l0,0,10-20h-.35l-9.9,19.82L37,36.91l0,0L19.82,71.16,0,81.07v.34l20-10ZM32.88,84.22,50,50,84.17,32.91l0,0L100.66,0h-.34L84,32.65,49.81,49.74l-.05,0L32.65,84,0,100.32v.34L32.84,84.24ZM21.64,0H21L7,7,7,7,0,21v.69L7.21,7.21ZM47.31,0h-.69l-31,15.52,0,0L0,46.62v.69L15.77,15.77ZM34.47,0h-.69L11.31,11.24l-.05,0L0,33.78v.69l11.49-23Zm2.64,88.52,0,0L54.27,54.27,88.45,37.18l0,0L105.61,2.93,111.48,0h-.69l-5.36,2.68-.05,0L88.27,36.93,54.09,54,54,54,36.93,88.27,2.75,105.36l0,0L0,110.79v.69l2.93-5.87ZM11.49,62.83,28.6,28.6,62.78,11.51l0,0L68.57,0h-.34L62.6,11.26,28.42,28.35l-.05,0L11.26,62.6,0,68.23v.34l11.44-5.72ZM50,101.36l0,0L67.11,67.11,101.29,50l0,0,17.12-34.23L150,0h-.69l-31,15.52,0,0L101.1,49.77,66.92,66.86l0,0L49.76,101.1,15.58,118.19l0,0L0,149.29V150l15.77-31.53ZM41.39,92.8l0,0L58.55,58.55,92.73,41.46l0,0L109.89,7.21,124.32,0h-.69L109.71,7l0,0L92.55,41.21,58.37,58.3l0,0L41.21,92.55,7,109.64l0,0-7,14v.68l7.21-14.42Zm4.28,4.28,0,0L62.83,62.83,97,45.74l0,0,17.12-34.23L137.15,0h-.69L114,11.24l0,0L96.82,45.49,62.64,62.58l0,0L45.49,96.83,11.31,113.92l-.05,0L0,136.46v.69l11.49-23ZM7.21,58.55,24.32,24.33,58.5,7.24l0,0L62.16,0h-.35L58.32,7,24.14,24.07l0,0L7,58.32,0,61.81v.35l7.17-3.59Zm12.84-38.5L54.23,3l0,0L55.74,0H55.4L54,2.71,19.86,19.79l0,0L2.7,54,0,55.4v.34l2.93-1.47ZM32.88,186.9,50,152.67l34.18-17.09,0,0,17.11-34.23,34.18-17.09.05,0L152.67,50l34.18-17.09.05,0L203.34,0H203L186.67,32.65,152.49,49.74l-.05,0L135.33,84l-34.18,17.09-.05,0L84,135.33,49.81,152.42l-.05,0L32.65,186.67,0,203v.35l32.84-16.42Z"/></g></g></svg>